<?xml version="1.0" encoding="utf-8" standalone="no"?>
<!DOCTYPE svg PUBLIC "-//W3C//DTD SVG 1.1//EN"
  "http://www.w3.org/Graphics/SVG/1.1/DTD/svg11.dtd">
<!-- Created with matplotlib (https://matplotlib.org/) -->
<svg height="216pt" version="1.1" viewBox="0 0 720 216" width="720pt" xmlns="http://www.w3.org/2000/svg" xmlns:xlink="http://www.w3.org/1999/xlink">
 <metadata>
  <rdf:RDF xmlns:cc="http://creativecommons.org/ns#" xmlns:dc="http://purl.org/dc/elements/1.1/" xmlns:rdf="http://www.w3.org/1999/02/22-rdf-syntax-ns#">
   <cc:Work>
    <dc:type rdf:resource="http://purl.org/dc/dcmitype/StillImage"/>
    <dc:date>2021-12-31T11:15:25.226461</dc:date>
    <dc:format>image/svg+xml</dc:format>
    <dc:creator>
     <cc:Agent>
      <dc:title>Matplotlib v3.3.3, https://matplotlib.org/</dc:title>
     </cc:Agent>
    </dc:creator>
   </cc:Work>
  </rdf:RDF>
 </metadata>
 <defs>
  <style type="text/css">*{stroke-linecap:butt;stroke-linejoin:round;}</style>
 </defs>
 <g id="figure_1">
  <g id="patch_1">
   <path d="M 0 216 
L 720 216 
L 720 0 
L 0 0 
z
" style="fill:#ffffff;"/>
  </g>
  <g id="axes_1">
   <g id="patch_2">
    <path d="M 33.64 88.165 
L 709.2 88.165 
L 709.2 14.76 
L 33.64 14.76 
z
" style="fill:#ffffff;"/>
   </g>
   <g id="PatchCollection_1">
    <path clip-path="url(#p526d8e67db)" d="M 33.64 88.165 
L 47.1512 88.165 
L 47.1512 41.592107 
L 33.64 41.592107 
z
" style="fill:#cba7ae;"/>
    <path clip-path="url(#p526d8e67db)" d="M 33.64 41.592107 
L 47.1512 41.592107 
L 47.1512 14.76 
L 33.64 14.76 
z
" style="fill:#dc8dbb;"/>
    <path clip-path="url(#p526d8e67db)" d="M 47.1512 88.165 
L 60.6624 88.165 
L 60.6624 43.94396 
L 47.1512 43.94396 
z
" style="fill:#cba7ae;"/>
    <path clip-path="url(#p526d8e67db)" d="M 47.1512 43.94396 
L 60.6624 43.94396 
L 60.6624 14.76 
L 47.1512 14.76 
z
" style="fill:#dc8dbb;"/>
    <path clip-path="url(#p526d8e67db)" d="M 60.6624 88.165 
L 74.1736 88.165 
L 74.1736 44.451643 
L 60.6624 44.451643 
z
" style="fill:#cba7ae;"/>
    <path clip-path="url(#p526d8e67db)" d="M 60.6624 44.451643 
L 74.1736 44.451643 
L 74.1736 14.76 
L 60.6624 14.76 
z
" style="fill:#dc8dbb;"/>
    <path clip-path="url(#p526d8e67db)" d="M 74.1736 88.165 
L 87.6848 88.165 
L 87.6848 44.96644 
L 74.1736 44.96644 
z
" style="fill:#cba7ae;"/>
    <path clip-path="url(#p526d8e67db)" d="M 74.1736 44.96644 
L 87.6848 44.96644 
L 87.6848 14.76 
L 74.1736 14.76 
z
" style="fill:#dc8dbb;"/>
    <path clip-path="url(#p526d8e67db)" d="M 87.6848 88.165 
L 101.196 88.165 
L 101.196 43.486616 
L 87.6848 43.486616 
z
" style="fill:#cba7ae;"/>
    <path clip-path="url(#p526d8e67db)" d="M 87.6848 43.486616 
L 101.196 43.486616 
L 101.196 14.76 
L 87.6848 14.76 
z
" style="fill:#dc8dbb;"/>
    <path clip-path="url(#p526d8e67db)" d="M 101.196 88.165 
L 114.7072 88.165 
L 114.7072 44.473252 
L 101.196 44.473252 
z
" style="fill:#cba7ae;"/>
    <path clip-path="url(#p526d8e67db)" d="M 101.196 44.473252 
L 114.7072 44.473252 
L 114.7072 14.76 
L 101.196 14.76 
z
" style="fill:#dc8dbb;"/>
    <path clip-path="url(#p526d8e67db)" d="M 114.7072 88.165 
L 128.2184 88.165 
L 128.2184 45.351873 
L 114.7072 45.351873 
z
" style="fill:#cba7ae;"/>
    <path clip-path="url(#p526d8e67db)" d="M 114.7072 45.351873 
L 128.2184 45.351873 
L 128.2184 14.76 
L 114.7072 14.76 
z
" style="fill:#dc8dbb;"/>
    <path clip-path="url(#p526d8e67db)" d="M 128.2184 88.165 
L 141.7296 88.165 
L 141.7296 45.855648 
L 128.2184 45.855648 
z
" style="fill:#cba7ae;"/>
    <path clip-path="url(#p526d8e67db)" d="M 128.2184 45.855648 
L 141.7296 45.855648 
L 141.7296 14.76 
L 128.2184 14.76 
z
" style="fill:#dc8dbb;"/>
    <path clip-path="url(#p526d8e67db)" d="M 141.7296 88.165 
L 155.2408 88.165 
L 155.2408 45.582472 
L 141.7296 45.582472 
z
" style="fill:#cba7ae;"/>
    <path clip-path="url(#p526d8e67db)" d="M 141.7296 45.582472 
L 155.2408 45.582472 
L 155.2408 14.76 
L 141.7296 14.76 
z
" style="fill:#dc8dbb;"/>
    <path clip-path="url(#p526d8e67db)" d="M 155.2408 88.165 
L 168.752 88.165 
L 168.752 46.595528 
L 155.2408 46.595528 
z
" style="fill:#cba7ae;"/>
    <path clip-path="url(#p526d8e67db)" d="M 155.2408 46.595528 
L 168.752 46.595528 
L 168.752 14.76 
L 155.2408 14.76 
z
" style="fill:#dc8dbb;"/>
    <path clip-path="url(#p526d8e67db)" d="M 168.752 88.165 
L 182.2632 88.165 
L 182.2632 46.2476 
L 168.752 46.2476 
z
" style="fill:#cba7ae;"/>
    <path clip-path="url(#p526d8e67db)" d="M 168.752 46.2476 
L 182.2632 46.2476 
L 182.2632 14.76 
L 168.752 14.76 
z
" style="fill:#dc8dbb;"/>
    <path clip-path="url(#p526d8e67db)" d="M 182.2632 88.165 
L 195.7744 88.165 
L 195.7744 46.198327 
L 182.2632 46.198327 
z
" style="fill:#cba7ae;"/>
    <path clip-path="url(#p526d8e67db)" d="M 182.2632 46.198327 
L 195.7744 46.198327 
L 195.7744 14.76 
L 182.2632 14.76 
z
" style="fill:#dc8dbb;"/>
    <path clip-path="url(#p526d8e67db)" d="M 195.7744 88.165 
L 209.2856 88.165 
L 209.2856 47.446967 
L 195.7744 47.446967 
z
" style="fill:#cba7ae;"/>
    <path clip-path="url(#p526d8e67db)" d="M 195.7744 47.446967 
L 209.2856 47.446967 
L 209.2856 14.76 
L 195.7744 14.76 
z
" style="fill:#dc8dbb;"/>
    <path clip-path="url(#p526d8e67db)" d="M 209.2856 88.165 
L 222.7968 88.165 
L 222.7968 45.705545 
L 209.2856 45.705545 
z
" style="fill:#cba7ae;"/>
    <path clip-path="url(#p526d8e67db)" d="M 209.2856 45.705545 
L 222.7968 45.705545 
L 222.7968 14.76 
L 209.2856 14.76 
z
" style="fill:#dc8dbb;"/>
    <path clip-path="url(#p526d8e67db)" d="M 222.7968 88.165 
L 236.308 88.165 
L 236.308 46.923506 
L 222.7968 46.923506 
z
" style="fill:#cba7ae;"/>
    <path clip-path="url(#p526d8e67db)" d="M 222.7968 46.923506 
L 236.308 46.923506 
L 236.308 14.76 
L 222.7968 14.76 
z
" style="fill:#dc8dbb;"/>
    <path clip-path="url(#p526d8e67db)" d="M 236.308 88.165 
L 249.8192 88.165 
L 249.8192 47.300296 
L 236.308 47.300296 
z
" style="fill:#cba7ae;"/>
    <path clip-path="url(#p526d8e67db)" d="M 236.308 47.300296 
L 249.8192 47.300296 
L 249.8192 14.76 
L 236.308 14.76 
z
" style="fill:#dc8dbb;"/>
    <path clip-path="url(#p526d8e67db)" d="M 249.8192 88.165 
L 263.3304 88.165 
L 263.3304 47.532361 
L 249.8192 47.532361 
z
" style="fill:#cba7ae;"/>
    <path clip-path="url(#p526d8e67db)" d="M 249.8192 47.532361 
L 263.3304 47.532361 
L 263.3304 14.76 
L 249.8192 14.76 
z
" style="fill:#dc8dbb;"/>
    <path clip-path="url(#p526d8e67db)" d="M 263.3304 88.165 
L 276.8416 88.165 
L 276.8416 48.212936 
L 263.3304 48.212936 
z
" style="fill:#cba7ae;"/>
    <path clip-path="url(#p526d8e67db)" d="M 263.3304 48.212936 
L 276.8416 48.212936 
L 276.8416 14.76 
L 263.3304 14.76 
z
" style="fill:#dc8dbb;"/>
    <path clip-path="url(#p526d8e67db)" d="M 276.8416 88.165 
L 290.3528 88.165 
L 290.3528 47.939978 
L 276.8416 47.939978 
z
" style="fill:#cba7ae;"/>
    <path clip-path="url(#p526d8e67db)" d="M 276.8416 47.939978 
L 290.3528 47.939978 
L 290.3528 14.76 
L 276.8416 14.76 
z
" style="fill:#dc8dbb;"/>
    <path clip-path="url(#p526d8e67db)" d="M 290.3528 88.165 
L 303.864 88.165 
L 303.864 45.881107 
L 290.3528 45.881107 
z
" style="fill:#cba7ae;"/>
    <path clip-path="url(#p526d8e67db)" d="M 290.3528 45.881107 
L 303.864 45.881107 
L 303.864 14.76 
L 290.3528 14.76 
z
" style="fill:#dc8dbb;"/>
    <path clip-path="url(#p526d8e67db)" d="M 303.864 88.165 
L 317.3752 88.165 
L 317.3752 48.216727 
L 303.864 48.216727 
z
" style="fill:#cba7ae;"/>
    <path clip-path="url(#p526d8e67db)" d="M 303.864 48.216727 
L 317.3752 48.216727 
L 317.3752 14.76 
L 303.864 14.76 
z
" style="fill:#dc8dbb;"/>
    <path clip-path="url(#p526d8e67db)" d="M 317.3752 88.165 
L 330.8864 88.165 
L 330.8864 47.090121 
L 317.3752 47.090121 
z
" style="fill:#cba7ae;"/>
    <path clip-path="url(#p526d8e67db)" d="M 317.3752 47.090121 
L 330.8864 47.090121 
L 330.8864 14.76 
L 317.3752 14.76 
z
" style="fill:#dc8dbb;"/>
    <path clip-path="url(#p526d8e67db)" d="M 330.8864 88.165 
L 344.3976 88.165 
L 344.3976 47.463747 
L 330.8864 47.463747 
z
" style="fill:#cba7ae;"/>
    <path clip-path="url(#p526d8e67db)" d="M 330.8864 47.463747 
L 344.3976 47.463747 
L 344.3976 14.76 
L 330.8864 14.76 
z
" style="fill:#dc8dbb;"/>
    <path clip-path="url(#p526d8e67db)" d="M 344.3976 88.165 
L 357.9088 88.165 
L 357.9088 48.498343 
L 344.3976 48.498343 
z
" style="fill:#cba7ae;"/>
    <path clip-path="url(#p526d8e67db)" d="M 344.3976 48.498343 
L 357.9088 48.498343 
L 357.9088 14.76 
L 344.3976 14.76 
z
" style="fill:#dc8dbb;"/>
    <path clip-path="url(#p526d8e67db)" d="M 357.9088 88.165 
L 371.42 88.165 
L 371.42 47.944344 
L 357.9088 47.944344 
z
" style="fill:#cba7ae;"/>
    <path clip-path="url(#p526d8e67db)" d="M 357.9088 47.944344 
L 371.42 47.944344 
L 371.42 14.76 
L 357.9088 14.76 
z
" style="fill:#dc8dbb;"/>
    <path clip-path="url(#p526d8e67db)" d="M 371.42 88.165 
L 384.9312 88.165 
L 384.9312 46.753695 
L 371.42 46.753695 
z
" style="fill:#cba7ae;"/>
    <path clip-path="url(#p526d8e67db)" d="M 371.42 46.753695 
L 384.9312 46.753695 
L 384.9312 14.76 
L 371.42 14.76 
z
" style="fill:#dc8dbb;"/>
    <path clip-path="url(#p526d8e67db)" d="M 384.9312 88.165 
L 398.4424 88.165 
L 398.4424 48.528294 
L 384.9312 48.528294 
z
" style="fill:#cba7ae;"/>
    <path clip-path="url(#p526d8e67db)" d="M 384.9312 48.528294 
L 398.4424 48.528294 
L 398.4424 14.76 
L 384.9312 14.76 
z
" style="fill:#dc8dbb;"/>
    <path clip-path="url(#p526d8e67db)" d="M 398.4424 88.165 
L 411.9536 88.165 
L 411.9536 48.235456 
L 398.4424 48.235456 
z
" style="fill:#cba7ae;"/>
    <path clip-path="url(#p526d8e67db)" d="M 398.4424 48.235456 
L 411.9536 48.235456 
L 411.9536 14.76 
L 398.4424 14.76 
z
" style="fill:#dc8dbb;"/>
    <path clip-path="url(#p526d8e67db)" d="M 411.9536 88.165 
L 425.4648 88.165 
L 425.4648 48.656189 
L 411.9536 48.656189 
z
" style="fill:#cba7ae;"/>
    <path clip-path="url(#p526d8e67db)" d="M 411.9536 48.656189 
L 425.4648 48.656189 
L 425.4648 14.76 
L 411.9536 14.76 
z
" style="fill:#dc8dbb;"/>
    <path clip-path="url(#p526d8e67db)" d="M 425.4648 88.165 
L 438.976 88.165 
L 438.976 48.106803 
L 425.4648 48.106803 
z
" style="fill:#cba7ae;"/>
    <path clip-path="url(#p526d8e67db)" d="M 425.4648 48.106803 
L 438.976 48.106803 
L 438.976 14.76 
L 425.4648 14.76 
z
" style="fill:#dc8dbb;"/>
    <path clip-path="url(#p526d8e67db)" d="M 438.976 88.165 
L 452.4872 88.165 
L 452.4872 47.209852 
L 438.976 47.209852 
z
" style="fill:#cba7ae;"/>
    <path clip-path="url(#p526d8e67db)" d="M 438.976 47.209852 
L 452.4872 47.209852 
L 452.4872 14.76 
L 438.976 14.76 
z
" style="fill:#dc8dbb;"/>
    <path clip-path="url(#p526d8e67db)" d="M 452.4872 88.165 
L 465.9984 88.165 
L 465.9984 49.042531 
L 452.4872 49.042531 
z
" style="fill:#cba7ae;"/>
    <path clip-path="url(#p526d8e67db)" d="M 452.4872 49.042531 
L 465.9984 49.042531 
L 465.9984 14.76 
L 452.4872 14.76 
z
" style="fill:#dc8dbb;"/>
    <path clip-path="url(#p526d8e67db)" d="M 465.9984 88.165 
L 479.5096 88.165 
L 479.5096 49.188094 
L 465.9984 49.188094 
z
" style="fill:#cba7ae;"/>
    <path clip-path="url(#p526d8e67db)" d="M 465.9984 49.188094 
L 479.5096 49.188094 
L 479.5096 14.76 
L 465.9984 14.76 
z
" style="fill:#dc8dbb;"/>
    <path clip-path="url(#p526d8e67db)" d="M 479.5096 88.165 
L 493.0208 88.165 
L 493.0208 49.011157 
L 479.5096 49.011157 
z
" style="fill:#cba7ae;"/>
    <path clip-path="url(#p526d8e67db)" d="M 479.5096 49.011157 
L 493.0208 49.011157 
L 493.0208 14.76 
L 479.5096 14.76 
z
" style="fill:#dc8dbb;"/>
    <path clip-path="url(#p526d8e67db)" d="M 493.0208 88.165 
L 506.532 88.165 
L 506.532 49.289433 
L 493.0208 49.289433 
z
" style="fill:#cba7ae;"/>
    <path clip-path="url(#p526d8e67db)" d="M 493.0208 49.289433 
L 506.532 49.289433 
L 506.532 14.76 
L 493.0208 14.76 
z
" style="fill:#dc8dbb;"/>
    <path clip-path="url(#p526d8e67db)" d="M 506.532 88.165 
L 520.0432 88.165 
L 520.0432 49.310212 
L 506.532 49.310212 
z
" style="fill:#cba7ae;"/>
    <path clip-path="url(#p526d8e67db)" d="M 506.532 49.310212 
L 520.0432 49.310212 
L 520.0432 14.76 
L 506.532 14.76 
z
" style="fill:#dc8dbb;"/>
    <path clip-path="url(#p526d8e67db)" d="M 520.0432 88.165 
L 533.5544 88.165 
L 533.5544 49.381943 
L 520.0432 49.381943 
z
" style="fill:#cba7ae;"/>
    <path clip-path="url(#p526d8e67db)" d="M 520.0432 49.381943 
L 533.5544 49.381943 
L 533.5544 14.76 
L 520.0432 14.76 
z
" style="fill:#dc8dbb;"/>
    <path clip-path="url(#p526d8e67db)" d="M 533.5544 88.165 
L 547.0656 88.165 
L 547.0656 49.633196 
L 533.5544 49.633196 
z
" style="fill:#cba7ae;"/>
    <path clip-path="url(#p526d8e67db)" d="M 533.5544 49.633196 
L 547.0656 49.633196 
L 547.0656 14.76 
L 533.5544 14.76 
z
" style="fill:#dc8dbb;"/>
    <path clip-path="url(#p526d8e67db)" d="M 547.0656 88.165 
L 560.5768 88.165 
L 560.5768 49.849942 
L 547.0656 49.849942 
z
" style="fill:#cba7ae;"/>
    <path clip-path="url(#p526d8e67db)" d="M 547.0656 49.849942 
L 560.5768 49.849942 
L 560.5768 14.76 
L 547.0656 14.76 
z
" style="fill:#dc8dbb;"/>
   </g>
   <g id="matplotlib.axis_1">
    <g id="xtick_1">
     <g id="line2d_1">
      <defs>
       <path d="M 0 0 
L 0 3.5 
" id="mf3494b25b8" style="stroke:#000000;stroke-width:0.8;"/>
      </defs>
      <g>
       <use style="stroke:#000000;stroke-width:0.8;" x="40.3956" xlink:href="#mf3494b25b8" y="88.165"/>
      </g>
     </g>
     <g id="text_1">
      <!-- WSH083 -->
      <g transform="translate(42.051225 120.87125)rotate(-90)scale(0.06 -0.06)">
       <defs>
        <path d="M 3.328125 72.90625 
L 13.28125 72.90625 
L 28.609375 11.28125 
L 43.890625 72.90625 
L 54.984375 72.90625 
L 70.3125 11.28125 
L 85.59375 72.90625 
L 95.609375 72.90625 
L 77.296875 0 
L 64.890625 0 
L 49.515625 63.28125 
L 33.984375 0 
L 21.578125 0 
z
" id="DejaVuSans-87"/>
        <path d="M 53.515625 70.515625 
L 53.515625 60.890625 
Q 47.90625 63.578125 42.921875 64.890625 
Q 37.9375 66.21875 33.296875 66.21875 
Q 25.25 66.21875 20.875 63.09375 
Q 16.5 59.96875 16.5 54.203125 
Q 16.5 49.359375 19.40625 46.890625 
Q 22.3125 44.4375 30.421875 42.921875 
L 36.375 41.703125 
Q 47.40625 39.59375 52.65625 34.296875 
Q 57.90625 29 57.90625 20.125 
Q 57.90625 9.515625 50.796875 4.046875 
Q 43.703125 -1.421875 29.984375 -1.421875 
Q 24.8125 -1.421875 18.96875 -0.25 
Q 13.140625 0.921875 6.890625 3.21875 
L 6.890625 13.375 
Q 12.890625 10.015625 18.65625 8.296875 
Q 24.421875 6.59375 29.984375 6.59375 
Q 38.421875 6.59375 43.015625 9.90625 
Q 47.609375 13.234375 47.609375 19.390625 
Q 47.609375 24.75 44.3125 27.78125 
Q 41.015625 30.8125 33.5 32.328125 
L 27.484375 33.5 
Q 16.453125 35.6875 11.515625 40.375 
Q 6.59375 45.0625 6.59375 53.421875 
Q 6.59375 63.09375 13.40625 68.65625 
Q 20.21875 74.21875 32.171875 74.21875 
Q 37.3125 74.21875 42.625 73.28125 
Q 47.953125 72.359375 53.515625 70.515625 
z
" id="DejaVuSans-83"/>
        <path d="M 9.8125 72.90625 
L 19.671875 72.90625 
L 19.671875 43.015625 
L 55.515625 43.015625 
L 55.515625 72.90625 
L 65.375 72.90625 
L 65.375 0 
L 55.515625 0 
L 55.515625 34.71875 
L 19.671875 34.71875 
L 19.671875 0 
L 9.8125 0 
z
" id="DejaVuSans-72"/>
        <path d="M 31.78125 66.40625 
Q 24.171875 66.40625 20.328125 58.90625 
Q 16.5 51.421875 16.5 36.375 
Q 16.5 21.390625 20.328125 13.890625 
Q 24.171875 6.390625 31.78125 6.390625 
Q 39.453125 6.390625 43.28125 13.890625 
Q 47.125 21.390625 47.125 36.375 
Q 47.125 51.421875 43.28125 58.90625 
Q 39.453125 66.40625 31.78125 66.40625 
z
M 31.78125 74.21875 
Q 44.046875 74.21875 50.515625 64.515625 
Q 56.984375 54.828125 56.984375 36.375 
Q 56.984375 17.96875 50.515625 8.265625 
Q 44.046875 -1.421875 31.78125 -1.421875 
Q 19.53125 -1.421875 13.0625 8.265625 
Q 6.59375 17.96875 6.59375 36.375 
Q 6.59375 54.828125 13.0625 64.515625 
Q 19.53125 74.21875 31.78125 74.21875 
z
" id="DejaVuSans-48"/>
        <path d="M 31.78125 34.625 
Q 24.75 34.625 20.71875 30.859375 
Q 16.703125 27.09375 16.703125 20.515625 
Q 16.703125 13.921875 20.71875 10.15625 
Q 24.75 6.390625 31.78125 6.390625 
Q 38.8125 6.390625 42.859375 10.171875 
Q 46.921875 13.96875 46.921875 20.515625 
Q 46.921875 27.09375 42.890625 30.859375 
Q 38.875 34.625 31.78125 34.625 
z
M 21.921875 38.8125 
Q 15.578125 40.375 12.03125 44.71875 
Q 8.5 49.078125 8.5 55.328125 
Q 8.5 64.0625 14.71875 69.140625 
Q 20.953125 74.21875 31.78125 74.21875 
Q 42.671875 74.21875 48.875 69.140625 
Q 55.078125 64.0625 55.078125 55.328125 
Q 55.078125 49.078125 51.53125 44.71875 
Q 48 40.375 41.703125 38.8125 
Q 48.828125 37.15625 52.796875 32.3125 
Q 56.78125 27.484375 56.78125 20.515625 
Q 56.78125 9.90625 50.3125 4.234375 
Q 43.84375 -1.421875 31.78125 -1.421875 
Q 19.734375 -1.421875 13.25 4.234375 
Q 6.78125 9.90625 6.78125 20.515625 
Q 6.78125 27.484375 10.78125 32.3125 
Q 14.796875 37.15625 21.921875 38.8125 
z
M 18.3125 54.390625 
Q 18.3125 48.734375 21.84375 45.5625 
Q 25.390625 42.390625 31.78125 42.390625 
Q 38.140625 42.390625 41.71875 45.5625 
Q 45.3125 48.734375 45.3125 54.390625 
Q 45.3125 60.0625 41.71875 63.234375 
Q 38.140625 66.40625 31.78125 66.40625 
Q 25.390625 66.40625 21.84375 63.234375 
Q 18.3125 60.0625 18.3125 54.390625 
z
" id="DejaVuSans-56"/>
        <path d="M 40.578125 39.3125 
Q 47.65625 37.796875 51.625 33 
Q 55.609375 28.21875 55.609375 21.1875 
Q 55.609375 10.40625 48.1875 4.484375 
Q 40.765625 -1.421875 27.09375 -1.421875 
Q 22.515625 -1.421875 17.65625 -0.515625 
Q 12.796875 0.390625 7.625 2.203125 
L 7.625 11.71875 
Q 11.71875 9.328125 16.59375 8.109375 
Q 21.484375 6.890625 26.8125 6.890625 
Q 36.078125 6.890625 40.9375 10.546875 
Q 45.796875 14.203125 45.796875 21.1875 
Q 45.796875 27.640625 41.28125 31.265625 
Q 36.765625 34.90625 28.71875 34.90625 
L 20.21875 34.90625 
L 20.21875 43.015625 
L 29.109375 43.015625 
Q 36.375 43.015625 40.234375 45.921875 
Q 44.09375 48.828125 44.09375 54.296875 
Q 44.09375 59.90625 40.109375 62.90625 
Q 36.140625 65.921875 28.71875 65.921875 
Q 24.65625 65.921875 20.015625 65.03125 
Q 15.375 64.15625 9.8125 62.3125 
L 9.8125 71.09375 
Q 15.4375 72.65625 20.34375 73.4375 
Q 25.25 74.21875 29.59375 74.21875 
Q 40.828125 74.21875 47.359375 69.109375 
Q 53.90625 64.015625 53.90625 55.328125 
Q 53.90625 49.265625 50.4375 45.09375 
Q 46.96875 40.921875 40.578125 39.3125 
z
" id="DejaVuSans-51"/>
       </defs>
       <use xlink:href="#DejaVuSans-87"/>
       <use x="98.876953" xlink:href="#DejaVuSans-83"/>
       <use x="162.353516" xlink:href="#DejaVuSans-72"/>
       <use x="237.548828" xlink:href="#DejaVuSans-48"/>
       <use x="301.171875" xlink:href="#DejaVuSans-56"/>
       <use x="364.794922" xlink:href="#DejaVuSans-51"/>
      </g>
     </g>
    </g>
    <g id="xtick_2">
     <g id="line2d_2">
      <g>
       <use style="stroke:#000000;stroke-width:0.8;" x="53.9068" xlink:href="#mf3494b25b8" y="88.165"/>
      </g>
     </g>
     <g id="text_2">
      <!-- WSH081 -->
      <g transform="translate(55.562425 120.87125)rotate(-90)scale(0.06 -0.06)">
       <defs>
        <path d="M 12.40625 8.296875 
L 28.515625 8.296875 
L 28.515625 63.921875 
L 10.984375 60.40625 
L 10.984375 69.390625 
L 28.421875 72.90625 
L 38.28125 72.90625 
L 38.28125 8.296875 
L 54.390625 8.296875 
L 54.390625 0 
L 12.40625 0 
z
" id="DejaVuSans-49"/>
       </defs>
       <use xlink:href="#DejaVuSans-87"/>
       <use x="98.876953" xlink:href="#DejaVuSans-83"/>
       <use x="162.353516" xlink:href="#DejaVuSans-72"/>
       <use x="237.548828" xlink:href="#DejaVuSans-48"/>
       <use x="301.171875" xlink:href="#DejaVuSans-56"/>
       <use x="364.794922" xlink:href="#DejaVuSans-49"/>
      </g>
     </g>
    </g>
    <g id="xtick_3">
     <g id="line2d_3">
      <g>
       <use style="stroke:#000000;stroke-width:0.8;" x="67.418" xlink:href="#mf3494b25b8" y="88.165"/>
      </g>
     </g>
     <g id="text_3">
      <!-- WSH052 -->
      <g transform="translate(69.073625 120.87125)rotate(-90)scale(0.06 -0.06)">
       <defs>
        <path d="M 10.796875 72.90625 
L 49.515625 72.90625 
L 49.515625 64.59375 
L 19.828125 64.59375 
L 19.828125 46.734375 
Q 21.96875 47.46875 24.109375 47.828125 
Q 26.265625 48.1875 28.421875 48.1875 
Q 40.625 48.1875 47.75 41.5 
Q 54.890625 34.8125 54.890625 23.390625 
Q 54.890625 11.625 47.5625 5.09375 
Q 40.234375 -1.421875 26.90625 -1.421875 
Q 22.3125 -1.421875 17.546875 -0.640625 
Q 12.796875 0.140625 7.71875 1.703125 
L 7.71875 11.625 
Q 12.109375 9.234375 16.796875 8.0625 
Q 21.484375 6.890625 26.703125 6.890625 
Q 35.15625 6.890625 40.078125 11.328125 
Q 45.015625 15.765625 45.015625 23.390625 
Q 45.015625 31 40.078125 35.4375 
Q 35.15625 39.890625 26.703125 39.890625 
Q 22.75 39.890625 18.8125 39.015625 
Q 14.890625 38.140625 10.796875 36.28125 
z
" id="DejaVuSans-53"/>
        <path d="M 19.1875 8.296875 
L 53.609375 8.296875 
L 53.609375 0 
L 7.328125 0 
L 7.328125 8.296875 
Q 12.9375 14.109375 22.625 23.890625 
Q 32.328125 33.6875 34.8125 36.53125 
Q 39.546875 41.84375 41.421875 45.53125 
Q 43.3125 49.21875 43.3125 52.78125 
Q 43.3125 58.59375 39.234375 62.25 
Q 35.15625 65.921875 28.609375 65.921875 
Q 23.96875 65.921875 18.8125 64.3125 
Q 13.671875 62.703125 7.8125 59.421875 
L 7.8125 69.390625 
Q 13.765625 71.78125 18.9375 73 
Q 24.125 74.21875 28.421875 74.21875 
Q 39.75 74.21875 46.484375 68.546875 
Q 53.21875 62.890625 53.21875 53.421875 
Q 53.21875 48.921875 51.53125 44.890625 
Q 49.859375 40.875 45.40625 35.40625 
Q 44.1875 33.984375 37.640625 27.21875 
Q 31.109375 20.453125 19.1875 8.296875 
z
" id="DejaVuSans-50"/>
       </defs>
       <use xlink:href="#DejaVuSans-87"/>
       <use x="98.876953" xlink:href="#DejaVuSans-83"/>
       <use x="162.353516" xlink:href="#DejaVuSans-72"/>
       <use x="237.548828" xlink:href="#DejaVuSans-48"/>
       <use x="301.171875" xlink:href="#DejaVuSans-53"/>
       <use x="364.794922" xlink:href="#DejaVuSans-50"/>
      </g>
     </g>
    </g>
    <g id="xtick_4">
     <g id="line2d_4">
      <g>
       <use style="stroke:#000000;stroke-width:0.8;" x="80.9292" xlink:href="#mf3494b25b8" y="88.165"/>
      </g>
     </g>
     <g id="text_4">
      <!-- WSH075 -->
      <g transform="translate(82.584825 120.87125)rotate(-90)scale(0.06 -0.06)">
       <defs>
        <path d="M 8.203125 72.90625 
L 55.078125 72.90625 
L 55.078125 68.703125 
L 28.609375 0 
L 18.3125 0 
L 43.21875 64.59375 
L 8.203125 64.59375 
z
" id="DejaVuSans-55"/>
       </defs>
       <use xlink:href="#DejaVuSans-87"/>
       <use x="98.876953" xlink:href="#DejaVuSans-83"/>
       <use x="162.353516" xlink:href="#DejaVuSans-72"/>
       <use x="237.548828" xlink:href="#DejaVuSans-48"/>
       <use x="301.171875" xlink:href="#DejaVuSans-55"/>
       <use x="364.794922" xlink:href="#DejaVuSans-53"/>
      </g>
     </g>
    </g>
    <g id="xtick_5">
     <g id="line2d_5">
      <g>
       <use style="stroke:#000000;stroke-width:0.8;" x="94.4404" xlink:href="#mf3494b25b8" y="88.165"/>
      </g>
     </g>
     <g id="text_5">
      <!-- WSH078 -->
      <g transform="translate(96.096025 120.87125)rotate(-90)scale(0.06 -0.06)">
       <use xlink:href="#DejaVuSans-87"/>
       <use x="98.876953" xlink:href="#DejaVuSans-83"/>
       <use x="162.353516" xlink:href="#DejaVuSans-72"/>
       <use x="237.548828" xlink:href="#DejaVuSans-48"/>
       <use x="301.171875" xlink:href="#DejaVuSans-55"/>
       <use x="364.794922" xlink:href="#DejaVuSans-56"/>
      </g>
     </g>
    </g>
    <g id="xtick_6">
     <g id="line2d_6">
      <g>
       <use style="stroke:#000000;stroke-width:0.8;" x="107.9516" xlink:href="#mf3494b25b8" y="88.165"/>
      </g>
     </g>
     <g id="text_6">
      <!-- WSH076 -->
      <g transform="translate(109.607225 120.87125)rotate(-90)scale(0.06 -0.06)">
       <defs>
        <path d="M 33.015625 40.375 
Q 26.375 40.375 22.484375 35.828125 
Q 18.609375 31.296875 18.609375 23.390625 
Q 18.609375 15.53125 22.484375 10.953125 
Q 26.375 6.390625 33.015625 6.390625 
Q 39.65625 6.390625 43.53125 10.953125 
Q 47.40625 15.53125 47.40625 23.390625 
Q 47.40625 31.296875 43.53125 35.828125 
Q 39.65625 40.375 33.015625 40.375 
z
M 52.59375 71.296875 
L 52.59375 62.3125 
Q 48.875 64.0625 45.09375 64.984375 
Q 41.3125 65.921875 37.59375 65.921875 
Q 27.828125 65.921875 22.671875 59.328125 
Q 17.53125 52.734375 16.796875 39.40625 
Q 19.671875 43.65625 24.015625 45.921875 
Q 28.375 48.1875 33.59375 48.1875 
Q 44.578125 48.1875 50.953125 41.515625 
Q 57.328125 34.859375 57.328125 23.390625 
Q 57.328125 12.15625 50.6875 5.359375 
Q 44.046875 -1.421875 33.015625 -1.421875 
Q 20.359375 -1.421875 13.671875 8.265625 
Q 6.984375 17.96875 6.984375 36.375 
Q 6.984375 53.65625 15.1875 63.9375 
Q 23.390625 74.21875 37.203125 74.21875 
Q 40.921875 74.21875 44.703125 73.484375 
Q 48.484375 72.75 52.59375 71.296875 
z
" id="DejaVuSans-54"/>
       </defs>
       <use xlink:href="#DejaVuSans-87"/>
       <use x="98.876953" xlink:href="#DejaVuSans-83"/>
       <use x="162.353516" xlink:href="#DejaVuSans-72"/>
       <use x="237.548828" xlink:href="#DejaVuSans-48"/>
       <use x="301.171875" xlink:href="#DejaVuSans-55"/>
       <use x="364.794922" xlink:href="#DejaVuSans-54"/>
      </g>
     </g>
    </g>
    <g id="xtick_7">
     <g id="line2d_7">
      <g>
       <use style="stroke:#000000;stroke-width:0.8;" x="121.4628" xlink:href="#mf3494b25b8" y="88.165"/>
      </g>
     </g>
     <g id="text_7">
      <!-- WSH069 -->
      <g transform="translate(123.118425 120.87125)rotate(-90)scale(0.06 -0.06)">
       <defs>
        <path d="M 10.984375 1.515625 
L 10.984375 10.5 
Q 14.703125 8.734375 18.5 7.8125 
Q 22.3125 6.890625 25.984375 6.890625 
Q 35.75 6.890625 40.890625 13.453125 
Q 46.046875 20.015625 46.78125 33.40625 
Q 43.953125 29.203125 39.59375 26.953125 
Q 35.25 24.703125 29.984375 24.703125 
Q 19.046875 24.703125 12.671875 31.3125 
Q 6.296875 37.9375 6.296875 49.421875 
Q 6.296875 60.640625 12.9375 67.421875 
Q 19.578125 74.21875 30.609375 74.21875 
Q 43.265625 74.21875 49.921875 64.515625 
Q 56.59375 54.828125 56.59375 36.375 
Q 56.59375 19.140625 48.40625 8.859375 
Q 40.234375 -1.421875 26.421875 -1.421875 
Q 22.703125 -1.421875 18.890625 -0.6875 
Q 15.09375 0.046875 10.984375 1.515625 
z
M 30.609375 32.421875 
Q 37.25 32.421875 41.125 36.953125 
Q 45.015625 41.5 45.015625 49.421875 
Q 45.015625 57.28125 41.125 61.84375 
Q 37.25 66.40625 30.609375 66.40625 
Q 23.96875 66.40625 20.09375 61.84375 
Q 16.21875 57.28125 16.21875 49.421875 
Q 16.21875 41.5 20.09375 36.953125 
Q 23.96875 32.421875 30.609375 32.421875 
z
" id="DejaVuSans-57"/>
       </defs>
       <use xlink:href="#DejaVuSans-87"/>
       <use x="98.876953" xlink:href="#DejaVuSans-83"/>
       <use x="162.353516" xlink:href="#DejaVuSans-72"/>
       <use x="237.548828" xlink:href="#DejaVuSans-48"/>
       <use x="301.171875" xlink:href="#DejaVuSans-54"/>
       <use x="364.794922" xlink:href="#DejaVuSans-57"/>
      </g>
     </g>
    </g>
    <g id="xtick_8">
     <g id="line2d_8">
      <g>
       <use style="stroke:#000000;stroke-width:0.8;" x="134.974" xlink:href="#mf3494b25b8" y="88.165"/>
      </g>
     </g>
     <g id="text_8">
      <!-- WSH077 -->
      <g transform="translate(136.629625 120.87125)rotate(-90)scale(0.06 -0.06)">
       <use xlink:href="#DejaVuSans-87"/>
       <use x="98.876953" xlink:href="#DejaVuSans-83"/>
       <use x="162.353516" xlink:href="#DejaVuSans-72"/>
       <use x="237.548828" xlink:href="#DejaVuSans-48"/>
       <use x="301.171875" xlink:href="#DejaVuSans-55"/>
       <use x="364.794922" xlink:href="#DejaVuSans-55"/>
      </g>
     </g>
    </g>
    <g id="xtick_9">
     <g id="line2d_9">
      <g>
       <use style="stroke:#000000;stroke-width:0.8;" x="148.4852" xlink:href="#mf3494b25b8" y="88.165"/>
      </g>
     </g>
     <g id="text_9">
      <!-- WSH071 -->
      <g transform="translate(150.140825 120.87125)rotate(-90)scale(0.06 -0.06)">
       <use xlink:href="#DejaVuSans-87"/>
       <use x="98.876953" xlink:href="#DejaVuSans-83"/>
       <use x="162.353516" xlink:href="#DejaVuSans-72"/>
       <use x="237.548828" xlink:href="#DejaVuSans-48"/>
       <use x="301.171875" xlink:href="#DejaVuSans-55"/>
       <use x="364.794922" xlink:href="#DejaVuSans-49"/>
      </g>
     </g>
    </g>
    <g id="xtick_10">
     <g id="line2d_10">
      <g>
       <use style="stroke:#000000;stroke-width:0.8;" x="161.9964" xlink:href="#mf3494b25b8" y="88.165"/>
      </g>
     </g>
     <g id="text_10">
      <!-- WSH079 -->
      <g transform="translate(163.652025 120.87125)rotate(-90)scale(0.06 -0.06)">
       <use xlink:href="#DejaVuSans-87"/>
       <use x="98.876953" xlink:href="#DejaVuSans-83"/>
       <use x="162.353516" xlink:href="#DejaVuSans-72"/>
       <use x="237.548828" xlink:href="#DejaVuSans-48"/>
       <use x="301.171875" xlink:href="#DejaVuSans-55"/>
       <use x="364.794922" xlink:href="#DejaVuSans-57"/>
      </g>
     </g>
    </g>
    <g id="xtick_11">
     <g id="line2d_11">
      <g>
       <use style="stroke:#000000;stroke-width:0.8;" x="175.5076" xlink:href="#mf3494b25b8" y="88.165"/>
      </g>
     </g>
     <g id="text_11">
      <!-- WSH060 -->
      <g transform="translate(177.163225 120.87125)rotate(-90)scale(0.06 -0.06)">
       <use xlink:href="#DejaVuSans-87"/>
       <use x="98.876953" xlink:href="#DejaVuSans-83"/>
       <use x="162.353516" xlink:href="#DejaVuSans-72"/>
       <use x="237.548828" xlink:href="#DejaVuSans-48"/>
       <use x="301.171875" xlink:href="#DejaVuSans-54"/>
       <use x="364.794922" xlink:href="#DejaVuSans-48"/>
      </g>
     </g>
    </g>
    <g id="xtick_12">
     <g id="line2d_12">
      <g>
       <use style="stroke:#000000;stroke-width:0.8;" x="189.0188" xlink:href="#mf3494b25b8" y="88.165"/>
      </g>
     </g>
     <g id="text_12">
      <!-- WSH073 -->
      <g transform="translate(190.674425 120.87125)rotate(-90)scale(0.06 -0.06)">
       <use xlink:href="#DejaVuSans-87"/>
       <use x="98.876953" xlink:href="#DejaVuSans-83"/>
       <use x="162.353516" xlink:href="#DejaVuSans-72"/>
       <use x="237.548828" xlink:href="#DejaVuSans-48"/>
       <use x="301.171875" xlink:href="#DejaVuSans-55"/>
       <use x="364.794922" xlink:href="#DejaVuSans-51"/>
      </g>
     </g>
    </g>
    <g id="xtick_13">
     <g id="line2d_13">
      <g>
       <use style="stroke:#000000;stroke-width:0.8;" x="202.53" xlink:href="#mf3494b25b8" y="88.165"/>
      </g>
     </g>
     <g id="text_13">
      <!-- WSH049 -->
      <g transform="translate(204.185625 120.87125)rotate(-90)scale(0.06 -0.06)">
       <defs>
        <path d="M 37.796875 64.3125 
L 12.890625 25.390625 
L 37.796875 25.390625 
z
M 35.203125 72.90625 
L 47.609375 72.90625 
L 47.609375 25.390625 
L 58.015625 25.390625 
L 58.015625 17.1875 
L 47.609375 17.1875 
L 47.609375 0 
L 37.796875 0 
L 37.796875 17.1875 
L 4.890625 17.1875 
L 4.890625 26.703125 
z
" id="DejaVuSans-52"/>
       </defs>
       <use xlink:href="#DejaVuSans-87"/>
       <use x="98.876953" xlink:href="#DejaVuSans-83"/>
       <use x="162.353516" xlink:href="#DejaVuSans-72"/>
       <use x="237.548828" xlink:href="#DejaVuSans-48"/>
       <use x="301.171875" xlink:href="#DejaVuSans-52"/>
       <use x="364.794922" xlink:href="#DejaVuSans-57"/>
      </g>
     </g>
    </g>
    <g id="xtick_14">
     <g id="line2d_14">
      <g>
       <use style="stroke:#000000;stroke-width:0.8;" x="216.0412" xlink:href="#mf3494b25b8" y="88.165"/>
      </g>
     </g>
     <g id="text_14">
      <!-- WSH074 -->
      <g transform="translate(217.696825 120.87125)rotate(-90)scale(0.06 -0.06)">
       <use xlink:href="#DejaVuSans-87"/>
       <use x="98.876953" xlink:href="#DejaVuSans-83"/>
       <use x="162.353516" xlink:href="#DejaVuSans-72"/>
       <use x="237.548828" xlink:href="#DejaVuSans-48"/>
       <use x="301.171875" xlink:href="#DejaVuSans-55"/>
       <use x="364.794922" xlink:href="#DejaVuSans-52"/>
      </g>
     </g>
    </g>
    <g id="xtick_15">
     <g id="line2d_15">
      <g>
       <use style="stroke:#000000;stroke-width:0.8;" x="229.5524" xlink:href="#mf3494b25b8" y="88.165"/>
      </g>
     </g>
     <g id="text_15">
      <!-- WSH058 -->
      <g transform="translate(231.208025 120.87125)rotate(-90)scale(0.06 -0.06)">
       <use xlink:href="#DejaVuSans-87"/>
       <use x="98.876953" xlink:href="#DejaVuSans-83"/>
       <use x="162.353516" xlink:href="#DejaVuSans-72"/>
       <use x="237.548828" xlink:href="#DejaVuSans-48"/>
       <use x="301.171875" xlink:href="#DejaVuSans-53"/>
       <use x="364.794922" xlink:href="#DejaVuSans-56"/>
      </g>
     </g>
    </g>
    <g id="xtick_16">
     <g id="line2d_16">
      <g>
       <use style="stroke:#000000;stroke-width:0.8;" x="243.0636" xlink:href="#mf3494b25b8" y="88.165"/>
      </g>
     </g>
     <g id="text_16">
      <!-- WSH084 -->
      <g transform="translate(244.719225 120.87125)rotate(-90)scale(0.06 -0.06)">
       <use xlink:href="#DejaVuSans-87"/>
       <use x="98.876953" xlink:href="#DejaVuSans-83"/>
       <use x="162.353516" xlink:href="#DejaVuSans-72"/>
       <use x="237.548828" xlink:href="#DejaVuSans-48"/>
       <use x="301.171875" xlink:href="#DejaVuSans-56"/>
       <use x="364.794922" xlink:href="#DejaVuSans-52"/>
      </g>
     </g>
    </g>
    <g id="xtick_17">
     <g id="line2d_17">
      <g>
       <use style="stroke:#000000;stroke-width:0.8;" x="256.5748" xlink:href="#mf3494b25b8" y="88.165"/>
      </g>
     </g>
     <g id="text_17">
      <!-- WSH080 -->
      <g transform="translate(258.230425 120.87125)rotate(-90)scale(0.06 -0.06)">
       <use xlink:href="#DejaVuSans-87"/>
       <use x="98.876953" xlink:href="#DejaVuSans-83"/>
       <use x="162.353516" xlink:href="#DejaVuSans-72"/>
       <use x="237.548828" xlink:href="#DejaVuSans-48"/>
       <use x="301.171875" xlink:href="#DejaVuSans-56"/>
       <use x="364.794922" xlink:href="#DejaVuSans-48"/>
      </g>
     </g>
    </g>
    <g id="xtick_18">
     <g id="line2d_18">
      <g>
       <use style="stroke:#000000;stroke-width:0.8;" x="270.086" xlink:href="#mf3494b25b8" y="88.165"/>
      </g>
     </g>
     <g id="text_18">
      <!-- WSH046 -->
      <g transform="translate(271.741625 120.87125)rotate(-90)scale(0.06 -0.06)">
       <use xlink:href="#DejaVuSans-87"/>
       <use x="98.876953" xlink:href="#DejaVuSans-83"/>
       <use x="162.353516" xlink:href="#DejaVuSans-72"/>
       <use x="237.548828" xlink:href="#DejaVuSans-48"/>
       <use x="301.171875" xlink:href="#DejaVuSans-52"/>
       <use x="364.794922" xlink:href="#DejaVuSans-54"/>
      </g>
     </g>
    </g>
    <g id="xtick_19">
     <g id="line2d_19">
      <g>
       <use style="stroke:#000000;stroke-width:0.8;" x="283.5972" xlink:href="#mf3494b25b8" y="88.165"/>
      </g>
     </g>
     <g id="text_19">
      <!-- WSH082 -->
      <g transform="translate(285.252825 120.87125)rotate(-90)scale(0.06 -0.06)">
       <use xlink:href="#DejaVuSans-87"/>
       <use x="98.876953" xlink:href="#DejaVuSans-83"/>
       <use x="162.353516" xlink:href="#DejaVuSans-72"/>
       <use x="237.548828" xlink:href="#DejaVuSans-48"/>
       <use x="301.171875" xlink:href="#DejaVuSans-56"/>
       <use x="364.794922" xlink:href="#DejaVuSans-50"/>
      </g>
     </g>
    </g>
    <g id="xtick_20">
     <g id="line2d_20">
      <g>
       <use style="stroke:#000000;stroke-width:0.8;" x="297.1084" xlink:href="#mf3494b25b8" y="88.165"/>
      </g>
     </g>
     <g id="text_20">
      <!-- WSH070 -->
      <g transform="translate(298.764025 120.87125)rotate(-90)scale(0.06 -0.06)">
       <use xlink:href="#DejaVuSans-87"/>
       <use x="98.876953" xlink:href="#DejaVuSans-83"/>
       <use x="162.353516" xlink:href="#DejaVuSans-72"/>
       <use x="237.548828" xlink:href="#DejaVuSans-48"/>
       <use x="301.171875" xlink:href="#DejaVuSans-55"/>
       <use x="364.794922" xlink:href="#DejaVuSans-48"/>
      </g>
     </g>
    </g>
    <g id="xtick_21">
     <g id="line2d_21">
      <g>
       <use style="stroke:#000000;stroke-width:0.8;" x="310.6196" xlink:href="#mf3494b25b8" y="88.165"/>
      </g>
     </g>
     <g id="text_21">
      <!-- WSH064 -->
      <g transform="translate(312.275225 120.87125)rotate(-90)scale(0.06 -0.06)">
       <use xlink:href="#DejaVuSans-87"/>
       <use x="98.876953" xlink:href="#DejaVuSans-83"/>
       <use x="162.353516" xlink:href="#DejaVuSans-72"/>
       <use x="237.548828" xlink:href="#DejaVuSans-48"/>
       <use x="301.171875" xlink:href="#DejaVuSans-54"/>
       <use x="364.794922" xlink:href="#DejaVuSans-52"/>
      </g>
     </g>
    </g>
    <g id="xtick_22">
     <g id="line2d_22">
      <g>
       <use style="stroke:#000000;stroke-width:0.8;" x="324.1308" xlink:href="#mf3494b25b8" y="88.165"/>
      </g>
     </g>
     <g id="text_22">
      <!-- WSH059 -->
      <g transform="translate(325.786425 120.87125)rotate(-90)scale(0.06 -0.06)">
       <use xlink:href="#DejaVuSans-87"/>
       <use x="98.876953" xlink:href="#DejaVuSans-83"/>
       <use x="162.353516" xlink:href="#DejaVuSans-72"/>
       <use x="237.548828" xlink:href="#DejaVuSans-48"/>
       <use x="301.171875" xlink:href="#DejaVuSans-53"/>
       <use x="364.794922" xlink:href="#DejaVuSans-57"/>
      </g>
     </g>
    </g>
    <g id="xtick_23">
     <g id="line2d_23">
      <g>
       <use style="stroke:#000000;stroke-width:0.8;" x="337.642" xlink:href="#mf3494b25b8" y="88.165"/>
      </g>
     </g>
     <g id="text_23">
      <!-- WSH050 -->
      <g transform="translate(339.297625 120.87125)rotate(-90)scale(0.06 -0.06)">
       <use xlink:href="#DejaVuSans-87"/>
       <use x="98.876953" xlink:href="#DejaVuSans-83"/>
       <use x="162.353516" xlink:href="#DejaVuSans-72"/>
       <use x="237.548828" xlink:href="#DejaVuSans-48"/>
       <use x="301.171875" xlink:href="#DejaVuSans-53"/>
       <use x="364.794922" xlink:href="#DejaVuSans-48"/>
      </g>
     </g>
    </g>
    <g id="xtick_24">
     <g id="line2d_24">
      <g>
       <use style="stroke:#000000;stroke-width:0.8;" x="351.1532" xlink:href="#mf3494b25b8" y="88.165"/>
      </g>
     </g>
     <g id="text_24">
      <!-- WSH047 -->
      <g transform="translate(352.808825 120.87125)rotate(-90)scale(0.06 -0.06)">
       <use xlink:href="#DejaVuSans-87"/>
       <use x="98.876953" xlink:href="#DejaVuSans-83"/>
       <use x="162.353516" xlink:href="#DejaVuSans-72"/>
       <use x="237.548828" xlink:href="#DejaVuSans-48"/>
       <use x="301.171875" xlink:href="#DejaVuSans-52"/>
       <use x="364.794922" xlink:href="#DejaVuSans-55"/>
      </g>
     </g>
    </g>
    <g id="xtick_25">
     <g id="line2d_25">
      <g>
       <use style="stroke:#000000;stroke-width:0.8;" x="364.6644" xlink:href="#mf3494b25b8" y="88.165"/>
      </g>
     </g>
     <g id="text_25">
      <!-- WSH067 -->
      <g transform="translate(366.320025 120.87125)rotate(-90)scale(0.06 -0.06)">
       <use xlink:href="#DejaVuSans-87"/>
       <use x="98.876953" xlink:href="#DejaVuSans-83"/>
       <use x="162.353516" xlink:href="#DejaVuSans-72"/>
       <use x="237.548828" xlink:href="#DejaVuSans-48"/>
       <use x="301.171875" xlink:href="#DejaVuSans-54"/>
       <use x="364.794922" xlink:href="#DejaVuSans-55"/>
      </g>
     </g>
    </g>
    <g id="xtick_26">
     <g id="line2d_26">
      <g>
       <use style="stroke:#000000;stroke-width:0.8;" x="378.1756" xlink:href="#mf3494b25b8" y="88.165"/>
      </g>
     </g>
     <g id="text_26">
      <!-- WSH072 -->
      <g transform="translate(379.831225 120.87125)rotate(-90)scale(0.06 -0.06)">
       <use xlink:href="#DejaVuSans-87"/>
       <use x="98.876953" xlink:href="#DejaVuSans-83"/>
       <use x="162.353516" xlink:href="#DejaVuSans-72"/>
       <use x="237.548828" xlink:href="#DejaVuSans-48"/>
       <use x="301.171875" xlink:href="#DejaVuSans-55"/>
       <use x="364.794922" xlink:href="#DejaVuSans-50"/>
      </g>
     </g>
    </g>
    <g id="xtick_27">
     <g id="line2d_27">
      <g>
       <use style="stroke:#000000;stroke-width:0.8;" x="391.6868" xlink:href="#mf3494b25b8" y="88.165"/>
      </g>
     </g>
     <g id="text_27">
      <!-- WSH051 -->
      <g transform="translate(393.342425 120.87125)rotate(-90)scale(0.06 -0.06)">
       <use xlink:href="#DejaVuSans-87"/>
       <use x="98.876953" xlink:href="#DejaVuSans-83"/>
       <use x="162.353516" xlink:href="#DejaVuSans-72"/>
       <use x="237.548828" xlink:href="#DejaVuSans-48"/>
       <use x="301.171875" xlink:href="#DejaVuSans-53"/>
       <use x="364.794922" xlink:href="#DejaVuSans-49"/>
      </g>
     </g>
    </g>
    <g id="xtick_28">
     <g id="line2d_28">
      <g>
       <use style="stroke:#000000;stroke-width:0.8;" x="405.198" xlink:href="#mf3494b25b8" y="88.165"/>
      </g>
     </g>
     <g id="text_28">
      <!-- WSH065 -->
      <g transform="translate(406.853625 120.87125)rotate(-90)scale(0.06 -0.06)">
       <use xlink:href="#DejaVuSans-87"/>
       <use x="98.876953" xlink:href="#DejaVuSans-83"/>
       <use x="162.353516" xlink:href="#DejaVuSans-72"/>
       <use x="237.548828" xlink:href="#DejaVuSans-48"/>
       <use x="301.171875" xlink:href="#DejaVuSans-54"/>
       <use x="364.794922" xlink:href="#DejaVuSans-53"/>
      </g>
     </g>
    </g>
    <g id="xtick_29">
     <g id="line2d_29">
      <g>
       <use style="stroke:#000000;stroke-width:0.8;" x="418.7092" xlink:href="#mf3494b25b8" y="88.165"/>
      </g>
     </g>
     <g id="text_29">
      <!-- WSH048 -->
      <g transform="translate(420.364825 120.87125)rotate(-90)scale(0.06 -0.06)">
       <use xlink:href="#DejaVuSans-87"/>
       <use x="98.876953" xlink:href="#DejaVuSans-83"/>
       <use x="162.353516" xlink:href="#DejaVuSans-72"/>
       <use x="237.548828" xlink:href="#DejaVuSans-48"/>
       <use x="301.171875" xlink:href="#DejaVuSans-52"/>
       <use x="364.794922" xlink:href="#DejaVuSans-56"/>
      </g>
     </g>
    </g>
    <g id="xtick_30">
     <g id="line2d_30">
      <g>
       <use style="stroke:#000000;stroke-width:0.8;" x="432.2204" xlink:href="#mf3494b25b8" y="88.165"/>
      </g>
     </g>
     <g id="text_30">
      <!-- WSH061 -->
      <g transform="translate(433.876025 120.87125)rotate(-90)scale(0.06 -0.06)">
       <use xlink:href="#DejaVuSans-87"/>
       <use x="98.876953" xlink:href="#DejaVuSans-83"/>
       <use x="162.353516" xlink:href="#DejaVuSans-72"/>
       <use x="237.548828" xlink:href="#DejaVuSans-48"/>
       <use x="301.171875" xlink:href="#DejaVuSans-54"/>
       <use x="364.794922" xlink:href="#DejaVuSans-49"/>
      </g>
     </g>
    </g>
    <g id="xtick_31">
     <g id="line2d_31">
      <g>
       <use style="stroke:#000000;stroke-width:0.8;" x="445.7316" xlink:href="#mf3494b25b8" y="88.165"/>
      </g>
     </g>
     <g id="text_31">
      <!-- WSH063 -->
      <g transform="translate(447.387225 120.87125)rotate(-90)scale(0.06 -0.06)">
       <use xlink:href="#DejaVuSans-87"/>
       <use x="98.876953" xlink:href="#DejaVuSans-83"/>
       <use x="162.353516" xlink:href="#DejaVuSans-72"/>
       <use x="237.548828" xlink:href="#DejaVuSans-48"/>
       <use x="301.171875" xlink:href="#DejaVuSans-54"/>
       <use x="364.794922" xlink:href="#DejaVuSans-51"/>
      </g>
     </g>
    </g>
    <g id="xtick_32">
     <g id="line2d_32">
      <g>
       <use style="stroke:#000000;stroke-width:0.8;" x="459.2428" xlink:href="#mf3494b25b8" y="88.165"/>
      </g>
     </g>
     <g id="text_32">
      <!-- WSH066 -->
      <g transform="translate(460.898425 120.87125)rotate(-90)scale(0.06 -0.06)">
       <use xlink:href="#DejaVuSans-87"/>
       <use x="98.876953" xlink:href="#DejaVuSans-83"/>
       <use x="162.353516" xlink:href="#DejaVuSans-72"/>
       <use x="237.548828" xlink:href="#DejaVuSans-48"/>
       <use x="301.171875" xlink:href="#DejaVuSans-54"/>
       <use x="364.794922" xlink:href="#DejaVuSans-54"/>
      </g>
     </g>
    </g>
    <g id="xtick_33">
     <g id="line2d_33">
      <g>
       <use style="stroke:#000000;stroke-width:0.8;" x="472.754" xlink:href="#mf3494b25b8" y="88.165"/>
      </g>
     </g>
     <g id="text_33">
      <!-- WSH056 -->
      <g transform="translate(474.409625 120.87125)rotate(-90)scale(0.06 -0.06)">
       <use xlink:href="#DejaVuSans-87"/>
       <use x="98.876953" xlink:href="#DejaVuSans-83"/>
       <use x="162.353516" xlink:href="#DejaVuSans-72"/>
       <use x="237.548828" xlink:href="#DejaVuSans-48"/>
       <use x="301.171875" xlink:href="#DejaVuSans-53"/>
       <use x="364.794922" xlink:href="#DejaVuSans-54"/>
      </g>
     </g>
    </g>
    <g id="xtick_34">
     <g id="line2d_34">
      <g>
       <use style="stroke:#000000;stroke-width:0.8;" x="486.2652" xlink:href="#mf3494b25b8" y="88.165"/>
      </g>
     </g>
     <g id="text_34">
      <!-- WSH053 -->
      <g transform="translate(487.920825 120.87125)rotate(-90)scale(0.06 -0.06)">
       <use xlink:href="#DejaVuSans-87"/>
       <use x="98.876953" xlink:href="#DejaVuSans-83"/>
       <use x="162.353516" xlink:href="#DejaVuSans-72"/>
       <use x="237.548828" xlink:href="#DejaVuSans-48"/>
       <use x="301.171875" xlink:href="#DejaVuSans-53"/>
       <use x="364.794922" xlink:href="#DejaVuSans-51"/>
      </g>
     </g>
    </g>
    <g id="xtick_35">
     <g id="line2d_35">
      <g>
       <use style="stroke:#000000;stroke-width:0.8;" x="499.7764" xlink:href="#mf3494b25b8" y="88.165"/>
      </g>
     </g>
     <g id="text_35">
      <!-- WSH054 -->
      <g transform="translate(501.432025 120.87125)rotate(-90)scale(0.06 -0.06)">
       <use xlink:href="#DejaVuSans-87"/>
       <use x="98.876953" xlink:href="#DejaVuSans-83"/>
       <use x="162.353516" xlink:href="#DejaVuSans-72"/>
       <use x="237.548828" xlink:href="#DejaVuSans-48"/>
       <use x="301.171875" xlink:href="#DejaVuSans-53"/>
       <use x="364.794922" xlink:href="#DejaVuSans-52"/>
      </g>
     </g>
    </g>
    <g id="xtick_36">
     <g id="line2d_36">
      <g>
       <use style="stroke:#000000;stroke-width:0.8;" x="513.2876" xlink:href="#mf3494b25b8" y="88.165"/>
      </g>
     </g>
     <g id="text_36">
      <!-- WSH057 -->
      <g transform="translate(514.943225 120.87125)rotate(-90)scale(0.06 -0.06)">
       <use xlink:href="#DejaVuSans-87"/>
       <use x="98.876953" xlink:href="#DejaVuSans-83"/>
       <use x="162.353516" xlink:href="#DejaVuSans-72"/>
       <use x="237.548828" xlink:href="#DejaVuSans-48"/>
       <use x="301.171875" xlink:href="#DejaVuSans-53"/>
       <use x="364.794922" xlink:href="#DejaVuSans-55"/>
      </g>
     </g>
    </g>
    <g id="xtick_37">
     <g id="line2d_37">
      <g>
       <use style="stroke:#000000;stroke-width:0.8;" x="526.7988" xlink:href="#mf3494b25b8" y="88.165"/>
      </g>
     </g>
     <g id="text_37">
      <!-- WSH062 -->
      <g transform="translate(528.454425 120.87125)rotate(-90)scale(0.06 -0.06)">
       <use xlink:href="#DejaVuSans-87"/>
       <use x="98.876953" xlink:href="#DejaVuSans-83"/>
       <use x="162.353516" xlink:href="#DejaVuSans-72"/>
       <use x="237.548828" xlink:href="#DejaVuSans-48"/>
       <use x="301.171875" xlink:href="#DejaVuSans-54"/>
       <use x="364.794922" xlink:href="#DejaVuSans-50"/>
      </g>
     </g>
    </g>
    <g id="xtick_38">
     <g id="line2d_38">
      <g>
       <use style="stroke:#000000;stroke-width:0.8;" x="540.31" xlink:href="#mf3494b25b8" y="88.165"/>
      </g>
     </g>
     <g id="text_38">
      <!-- WSH055 -->
      <g transform="translate(541.965625 120.87125)rotate(-90)scale(0.06 -0.06)">
       <use xlink:href="#DejaVuSans-87"/>
       <use x="98.876953" xlink:href="#DejaVuSans-83"/>
       <use x="162.353516" xlink:href="#DejaVuSans-72"/>
       <use x="237.548828" xlink:href="#DejaVuSans-48"/>
       <use x="301.171875" xlink:href="#DejaVuSans-53"/>
       <use x="364.794922" xlink:href="#DejaVuSans-53"/>
      </g>
     </g>
    </g>
    <g id="xtick_39">
     <g id="line2d_39">
      <g>
       <use style="stroke:#000000;stroke-width:0.8;" x="553.8212" xlink:href="#mf3494b25b8" y="88.165"/>
      </g>
     </g>
     <g id="text_39">
      <!-- WSH068 -->
      <g transform="translate(555.476825 120.87125)rotate(-90)scale(0.06 -0.06)">
       <use xlink:href="#DejaVuSans-87"/>
       <use x="98.876953" xlink:href="#DejaVuSans-83"/>
       <use x="162.353516" xlink:href="#DejaVuSans-72"/>
       <use x="237.548828" xlink:href="#DejaVuSans-48"/>
       <use x="301.171875" xlink:href="#DejaVuSans-54"/>
       <use x="364.794922" xlink:href="#DejaVuSans-56"/>
      </g>
     </g>
    </g>
   </g>
   <g id="matplotlib.axis_2">
    <g id="ytick_1">
     <g id="line2d_40">
      <defs>
       <path d="M 0 0 
L -3.5 0 
" id="m21f1ab06de" style="stroke:#000000;stroke-width:0.8;"/>
      </defs>
      <g>
       <use style="stroke:#000000;stroke-width:0.8;" x="33.64" xlink:href="#m21f1ab06de" y="88.165"/>
      </g>
     </g>
     <g id="text_40">
      <!-- 0.0 -->
      <g transform="translate(10.736875 91.964219)scale(0.1 -0.1)">
       <defs>
        <path d="M 10.6875 12.40625 
L 21 12.40625 
L 21 0 
L 10.6875 0 
z
" id="DejaVuSans-46"/>
       </defs>
       <use xlink:href="#DejaVuSans-48"/>
       <use x="63.623047" xlink:href="#DejaVuSans-46"/>
       <use x="95.410156" xlink:href="#DejaVuSans-48"/>
      </g>
     </g>
    </g>
    <g id="ytick_2">
     <g id="line2d_41">
      <g>
       <use style="stroke:#000000;stroke-width:0.8;" x="33.64" xlink:href="#m21f1ab06de" y="51.4625"/>
      </g>
     </g>
     <g id="text_41">
      <!-- 0.5 -->
      <g transform="translate(10.736875 55.261719)scale(0.1 -0.1)">
       <use xlink:href="#DejaVuSans-48"/>
       <use x="63.623047" xlink:href="#DejaVuSans-46"/>
       <use x="95.410156" xlink:href="#DejaVuSans-53"/>
      </g>
     </g>
    </g>
    <g id="ytick_3">
     <g id="line2d_42">
      <g>
       <use style="stroke:#000000;stroke-width:0.8;" x="33.64" xlink:href="#m21f1ab06de" y="14.76"/>
      </g>
     </g>
     <g id="text_42">
      <!-- 1.0 -->
      <g transform="translate(10.736875 18.559219)scale(0.1 -0.1)">
       <use xlink:href="#DejaVuSans-49"/>
       <use x="63.623047" xlink:href="#DejaVuSans-46"/>
       <use x="95.410156" xlink:href="#DejaVuSans-48"/>
      </g>
     </g>
    </g>
   </g>
   <g id="line2d_43">
    <path clip-path="url(#p526d8e67db)" d="M 33.64 88.165 
L 560.5768 88.165 
" style="fill:none;stroke:#000000;stroke-linecap:square;stroke-width:2;"/>
   </g>
   <g id="patch_3">
    <path d="M 33.64 88.165 
L 33.64 14.76 
" style="fill:none;stroke:#000000;stroke-linecap:square;stroke-linejoin:miter;stroke-width:0.8;"/>
   </g>
  </g>
  <g id="axes_2">
   <g id="patch_4">
    <path clip-path="url(#pc49a4e655e)" d="M 33.64 131.795 
L 78.677333 131.795 
L 78.677333 205.2 
L 33.64 205.2 
z
" style="fill:#cba7ae;stroke:#cba7ae;stroke-linejoin:miter;"/>
   </g>
   <g id="patch_5">
    <path clip-path="url(#pc49a4e655e)" d="M 168.752 131.795 
L 213.789333 131.795 
L 213.789333 205.2 
L 168.752 205.2 
z
" style="fill:#dc8dbb;stroke:#dc8dbb;stroke-linejoin:miter;"/>
   </g>
   <g id="text_43">
    <!-- C31-C17d-C21-C... -->
    <g transform="translate(87.6848 170.705)scale(0.08 -0.08)">
     <defs>
      <path d="M 64.40625 67.28125 
L 64.40625 56.890625 
Q 59.421875 61.53125 53.78125 63.8125 
Q 48.140625 66.109375 41.796875 66.109375 
Q 29.296875 66.109375 22.65625 58.46875 
Q 16.015625 50.828125 16.015625 36.375 
Q 16.015625 21.96875 22.65625 14.328125 
Q 29.296875 6.6875 41.796875 6.6875 
Q 48.140625 6.6875 53.78125 8.984375 
Q 59.421875 11.28125 64.40625 15.921875 
L 64.40625 5.609375 
Q 59.234375 2.09375 53.4375 0.328125 
Q 47.65625 -1.421875 41.21875 -1.421875 
Q 24.65625 -1.421875 15.125 8.703125 
Q 5.609375 18.84375 5.609375 36.375 
Q 5.609375 53.953125 15.125 64.078125 
Q 24.65625 74.21875 41.21875 74.21875 
Q 47.75 74.21875 53.53125 72.484375 
Q 59.328125 70.75 64.40625 67.28125 
z
" id="DejaVuSans-67"/>
      <path d="M 4.890625 31.390625 
L 31.203125 31.390625 
L 31.203125 23.390625 
L 4.890625 23.390625 
z
" id="DejaVuSans-45"/>
      <path d="M 45.40625 46.390625 
L 45.40625 75.984375 
L 54.390625 75.984375 
L 54.390625 0 
L 45.40625 0 
L 45.40625 8.203125 
Q 42.578125 3.328125 38.25 0.953125 
Q 33.9375 -1.421875 27.875 -1.421875 
Q 17.96875 -1.421875 11.734375 6.484375 
Q 5.515625 14.40625 5.515625 27.296875 
Q 5.515625 40.1875 11.734375 48.09375 
Q 17.96875 56 27.875 56 
Q 33.9375 56 38.25 53.625 
Q 42.578125 51.265625 45.40625 46.390625 
z
M 14.796875 27.296875 
Q 14.796875 17.390625 18.875 11.75 
Q 22.953125 6.109375 30.078125 6.109375 
Q 37.203125 6.109375 41.296875 11.75 
Q 45.40625 17.390625 45.40625 27.296875 
Q 45.40625 37.203125 41.296875 42.84375 
Q 37.203125 48.484375 30.078125 48.484375 
Q 22.953125 48.484375 18.875 42.84375 
Q 14.796875 37.203125 14.796875 27.296875 
z
" id="DejaVuSans-100"/>
     </defs>
     <use xlink:href="#DejaVuSans-67"/>
     <use x="69.824219" xlink:href="#DejaVuSans-51"/>
     <use x="133.447266" xlink:href="#DejaVuSans-49"/>
     <use x="197.070312" xlink:href="#DejaVuSans-45"/>
     <use x="233.154297" xlink:href="#DejaVuSans-67"/>
     <use x="302.978516" xlink:href="#DejaVuSans-49"/>
     <use x="366.601562" xlink:href="#DejaVuSans-55"/>
     <use x="430.224609" xlink:href="#DejaVuSans-100"/>
     <use x="493.701172" xlink:href="#DejaVuSans-45"/>
     <use x="529.785156" xlink:href="#DejaVuSans-67"/>
     <use x="599.609375" xlink:href="#DejaVuSans-50"/>
     <use x="663.232422" xlink:href="#DejaVuSans-49"/>
     <use x="726.855469" xlink:href="#DejaVuSans-45"/>
     <use x="762.939453" xlink:href="#DejaVuSans-67"/>
     <use x="832.763672" xlink:href="#DejaVuSans-46"/>
     <use x="864.550781" xlink:href="#DejaVuSans-46"/>
     <use x="896.337891" xlink:href="#DejaVuSans-46"/>
    </g>
   </g>
   <g id="text_44">
    <!-- D1-D4-D6-D1ab-... -->
    <g transform="translate(222.7968 170.705)scale(0.08 -0.08)">
     <defs>
      <path d="M 19.671875 64.796875 
L 19.671875 8.109375 
L 31.59375 8.109375 
Q 46.6875 8.109375 53.6875 14.9375 
Q 60.6875 21.78125 60.6875 36.53125 
Q 60.6875 51.171875 53.6875 57.984375 
Q 46.6875 64.796875 31.59375 64.796875 
z
M 9.8125 72.90625 
L 30.078125 72.90625 
Q 51.265625 72.90625 61.171875 64.09375 
Q 71.09375 55.28125 71.09375 36.53125 
Q 71.09375 17.671875 61.125 8.828125 
Q 51.171875 0 30.078125 0 
L 9.8125 0 
z
" id="DejaVuSans-68"/>
      <path d="M 34.28125 27.484375 
Q 23.390625 27.484375 19.1875 25 
Q 14.984375 22.515625 14.984375 16.5 
Q 14.984375 11.71875 18.140625 8.90625 
Q 21.296875 6.109375 26.703125 6.109375 
Q 34.1875 6.109375 38.703125 11.40625 
Q 43.21875 16.703125 43.21875 25.484375 
L 43.21875 27.484375 
z
M 52.203125 31.203125 
L 52.203125 0 
L 43.21875 0 
L 43.21875 8.296875 
Q 40.140625 3.328125 35.546875 0.953125 
Q 30.953125 -1.421875 24.3125 -1.421875 
Q 15.921875 -1.421875 10.953125 3.296875 
Q 6 8.015625 6 15.921875 
Q 6 25.140625 12.171875 29.828125 
Q 18.359375 34.515625 30.609375 34.515625 
L 43.21875 34.515625 
L 43.21875 35.40625 
Q 43.21875 41.609375 39.140625 45 
Q 35.0625 48.390625 27.6875 48.390625 
Q 23 48.390625 18.546875 47.265625 
Q 14.109375 46.140625 10.015625 43.890625 
L 10.015625 52.203125 
Q 14.9375 54.109375 19.578125 55.046875 
Q 24.21875 56 28.609375 56 
Q 40.484375 56 46.34375 49.84375 
Q 52.203125 43.703125 52.203125 31.203125 
z
" id="DejaVuSans-97"/>
      <path d="M 48.6875 27.296875 
Q 48.6875 37.203125 44.609375 42.84375 
Q 40.53125 48.484375 33.40625 48.484375 
Q 26.265625 48.484375 22.1875 42.84375 
Q 18.109375 37.203125 18.109375 27.296875 
Q 18.109375 17.390625 22.1875 11.75 
Q 26.265625 6.109375 33.40625 6.109375 
Q 40.53125 6.109375 44.609375 11.75 
Q 48.6875 17.390625 48.6875 27.296875 
z
M 18.109375 46.390625 
Q 20.953125 51.265625 25.265625 53.625 
Q 29.59375 56 35.59375 56 
Q 45.5625 56 51.78125 48.09375 
Q 58.015625 40.1875 58.015625 27.296875 
Q 58.015625 14.40625 51.78125 6.484375 
Q 45.5625 -1.421875 35.59375 -1.421875 
Q 29.59375 -1.421875 25.265625 0.953125 
Q 20.953125 3.328125 18.109375 8.203125 
L 18.109375 0 
L 9.078125 0 
L 9.078125 75.984375 
L 18.109375 75.984375 
z
" id="DejaVuSans-98"/>
     </defs>
     <use xlink:href="#DejaVuSans-68"/>
     <use x="77.001953" xlink:href="#DejaVuSans-49"/>
     <use x="140.625" xlink:href="#DejaVuSans-45"/>
     <use x="176.708984" xlink:href="#DejaVuSans-68"/>
     <use x="253.710938" xlink:href="#DejaVuSans-52"/>
     <use x="317.333984" xlink:href="#DejaVuSans-45"/>
     <use x="353.417969" xlink:href="#DejaVuSans-68"/>
     <use x="430.419922" xlink:href="#DejaVuSans-54"/>
     <use x="494.042969" xlink:href="#DejaVuSans-45"/>
     <use x="530.126953" xlink:href="#DejaVuSans-68"/>
     <use x="607.128906" xlink:href="#DejaVuSans-49"/>
     <use x="670.751953" xlink:href="#DejaVuSans-97"/>
     <use x="732.03125" xlink:href="#DejaVuSans-98"/>
     <use x="795.507812" xlink:href="#DejaVuSans-45"/>
     <use x="831.591797" xlink:href="#DejaVuSans-46"/>
     <use x="863.378906" xlink:href="#DejaVuSans-46"/>
     <use x="895.166016" xlink:href="#DejaVuSans-46"/>
    </g>
   </g>
  </g>
 </g>
 <defs>
  <clipPath id="p526d8e67db">
   <rect height="73.405" width="675.56" x="33.64" y="14.76"/>
  </clipPath>
  <clipPath id="pc49a4e655e">
   <rect height="73.405" width="675.56" x="33.64" y="131.795"/>
  </clipPath>
 </defs>
</svg>
